# xmcd CD database file
#
# Track frame offsets:
#	150
#	8640
#	21592
#	38076
#	50312
#	67043
#	79692
#	95124
#	114575
#	131794
#	151656
#	160212
#	176606
#	198081
#
# Disc length: 2874 seconds
#
# Revision: 0
# Processed by: cddbd v1.5.2PL0 Copyright (c) Steve Scherf et al.
# Submitted via: CDex 1.51
#
DISCID=b10b380e
DTITLE=Dan Israel - Turning
DYEAR=2007
DGENRE=Blues
TTITLE0=Triangle
TTITLE1=Counting on You
TTITLE2=Hurt and Love
TTITLE3=Occasionally
TTITLE4=See you Grow
TTITLE5=News to Me
TTITLE6=6/20 Song
TTITLE7=Song for Africa
TTITLE8=Never Go Away
TTITLE9=Turning
TTITLE10=No One Ever Really Dies
TTITLE11=This World
TTITLE12=Just Don't Know
TTITLE13=Always on Her Own
EXTD=YEAR: 2007
EXTT0=
EXTT1=
EXTT2=
EXTT3=
EXTT4=
EXTT5=
EXTT6=
EXTT7=
EXTT8=
EXTT9=
EXTT10=
EXTT11=
EXTT12=
EXTT13=
PLAYORDER=
